<?xml version="1.0" encoding="UTF-8" standalone="no"?>
<!DOCTYPE svg PUBLIC "-//W3C//DTD SVG 1.1//EN" "http://www.w3.org/Graphics/SVG/1.1/DTD/svg11.dtd">
<svg width="100%" height="100%" viewBox="0 0 12 12" version="1.1" xmlns="http://www.w3.org/2000/svg" xmlns:xlink="http://www.w3.org/1999/xlink" xml:space="preserve" xmlns:serif="http://www.serif.com/" style="fill-rule:evenodd;clip-rule:evenodd;stroke-linejoin:round;stroke-miterlimit:2;">
    <g transform="matrix(0.18,0,0,0.18,0,0)">
        <g transform="matrix(1.09066,0,0,1.16981,-0.99594,-1.76488)">
            <path d="M59.593,15.186C59.593,7.637 53.02,1.509 44.923,1.509L15.583,1.509C7.487,1.509 0.913,7.637 0.913,15.186L0.913,42.541C0.913,50.09 7.487,56.218 15.583,56.218L44.923,56.218C53.02,56.218 59.593,50.09 59.593,42.541L59.593,15.186Z" style="fill:rgb(247,119,119);"/>
        </g>
        <g transform="matrix(0.0316827,0.018292,-0.018292,0.0316827,-54.5104,-61.7227)">
            <path d="M3509.62,719.959C3509.62,719.959 3529.18,695.48 3494.39,328.909C3494.27,327.64 3493.27,326.604 3491.98,326.41L3479.15,324.488C3477.45,324.234 3475.9,325.49 3475.86,327.164L3469.03,594.283C3468.94,598.009 3466.81,601.522 3463.31,603.052C3460.85,604.131 3457.69,604.452 3454.08,602.416C3451.05,600.706 3449.26,597.486 3449.17,594.08L3442.42,325.352C3442.38,323.845 3441.12,322.643 3439.57,322.643L3430.11,322.643C3428.56,322.643 3427.29,323.858 3427.26,325.374L3422.68,593.436C3422.65,595.489 3421.99,597.486 3420.78,599.128C3418.71,601.39 3416.7,602.697 3414.81,603.306C3414.67,603.348 3414.53,603.379 3414.4,603.416C3414.17,603.478 3413.95,603.536 3413.73,603.579C3413.54,603.615 3413.35,603.641 3413.15,603.666C3412.97,603.689 3412.79,603.711 3412.6,603.723C3412.41,603.735 3412.22,603.738 3412.03,603.738C3411.84,603.738 3411.65,603.735 3411.46,603.723C3411.28,603.711 3411.09,603.689 3410.91,603.666C3410.71,603.641 3410.52,603.615 3410.33,603.579C3410.11,603.535 3409.89,603.478 3409.66,603.416C3409.53,603.379 3409.39,603.348 3409.25,603.306C3407.37,602.697 3405.36,601.39 3403.28,599.128C3402.07,597.486 3401.41,595.489 3401.38,593.436L3396.8,325.374C3396.77,323.858 3395.5,322.643 3393.95,322.643L3384.49,322.643C3382.94,322.643 3381.68,323.845 3381.64,325.352L3374.89,594.08C3374.8,597.486 3373.01,600.705 3369.98,602.416C3366.37,604.452 3363.21,604.131 3360.75,603.052C3357.25,601.522 3355.13,598.009 3355.03,594.283L3348.2,327.164C3348.16,325.49 3332.08,326.41 3332.08,326.41C3330.79,326.604 3329.79,327.64 3329.67,328.909C3294.88,695.48 3314.44,719.959 3314.44,719.959C3317.74,739.211 3360.66,782.467 3379.1,800.309C3382.69,803.775 3384.63,808.528 3384.48,813.442L3360.07,1627.45C3359.05,1661.23 3382.5,1689.36 3411.97,1689.36C3441.44,1689.36 3464.88,1661.23 3463.86,1627.45L3439.46,813.564C3439.31,808.648 3441.25,803.893 3444.84,800.426C3463.21,782.659 3506.31,739.254 3509.62,719.959Z" style="fill:white;fill-rule:nonzero;"/>
        </g>
        <g transform="matrix(0.0316827,-0.018292,0.018292,0.0316827,-69.6499,46.8857)">
            <path d="M2549.7,322.643C2419.2,324.046 2392.54,559.784 2407.98,650.991C2420.91,727.391 2491.91,774.247 2514.63,787.449C2518.84,789.896 2521.36,794.458 2521.22,799.327L2497.1,1625.73C2496.09,1660.46 2519.53,1689.36 2549,1689.36C2578.47,1689.36 2601.91,1660.46 2600.9,1625.73L2576.78,799.383C2576.64,794.484 2579.19,789.9 2583.44,787.464C2606.45,774.283 2678.49,727.42 2691.42,650.991C2706.86,559.784 2680.2,324.046 2549.7,322.643Z" style="fill:white;fill-rule:nonzero;"/>
        </g>
    </g>
</svg>
